# xmcd
#
# Track frame offsets: 
#        225
#        12224
#        24897
#        37112
#        47866
#        65508
#        76692
#        91709
#        102732
#        118722
#        136552
#        151040
#        164030
#        178826
#
# Disc length: 2560 seconds
#
# Revision: 0
# Processed by: cddbd v1.5.2PL0 Copyright (c) Steve Scherf et al.
# Submitted via: ExactAudioCopy v0.99pb4
#
DISCID=aa09fd0e
DTITLE=Tuff Enuff - Something's Coming
DYEAR=1998
DGENRE=Blues
TTITLE0=Tell everybody I know
TTITLE1=Please don't bury me
TTITLE2=Someday baby blues
TTITLE3=Something's coming
TTITLE4=One of a kind
TTITLE5=Going down the road
TTITLE6=My Angel
TTITLE7=Ik wol hjir nooit wer wei
TTITLE8=Flip, flop and fly
TTITLE9=Pride and Joy
TTITLE10=Come on in my kitchen
TTITLE11=So much to do
TTITLE12=Baby what you want me to do
TTITLE13=Shade of night
EXTD=
EXTT0=Tell everybody I know
EXTT1=
EXTT2=
EXTT3=
EXTT4=
EXTT5=
EXTT6=
EXTT7=
EXTT8=
EXTT9=
EXTT10=
EXTT11=
EXTT12=
EXTT13=
PLAYORDER=
